<?xml version="1.0" standalone="no"?>
<!DOCTYPE svg PUBLIC "-//W3C//DTD SVG 20010904//EN"
 "http://www.w3.org/TR/2001/REC-SVG-20010904/DTD/svg10.dtd">
<svg version="1.0" xmlns="http://www.w3.org/2000/svg"
 width="238.000000pt" height="250.000000pt" viewBox="0 0 238.000000 250.000000"
 preserveAspectRatio="xMidYMid meet">
<metadata>
Created by potrace 1.10, written by Peter Selinger 2001-2011
</metadata>
<g transform="translate(0.000000,250.000000) scale(0.100000,-0.100000)"
fill="#fff" stroke="none">
<path d="M201 2045 c-12 -16 -15 -1582 -3 -1589 13 -8 1970 -8 1983 0 15 9 10
1582 -4 1592 -19 11 -1967 9 -1976 -3z m1360 -85 c3 -30 2 -65 -2 -78 l-9 -22
-657 2 -658 3 -3 49 c-2 27 -1 60 3 73 l5 23 458 3 c251 1 547 2 657 2 l200 0
6 -55z m204 -20 l0 -80 -82 0 -83 0 0 80 0 80 83 0 82 0 0 -80z m185 0 l0 -80
-80 0 -80 0 0 80 0 80 80 0 80 0 0 -80z m190 0 l0 -80 -80 0 -80 0 0 80 0 80
80 0 80 0 0 -80z m0 -785 l0 -665 -950 0 -950 0 0 665 0 665 950 0 950 0 0
-665z"/>
<path d="M670 1369 c-146 -110 -269 -204 -273 -208 -7 -7 533 -421 548 -421 3
0 5 26 5 58 l0 58 -200 150 c-153 113 -198 151 -187 159 7 5 97 72 200 148
l187 139 0 59 c0 32 -3 59 -7 58 -5 0 -127 -90 -273 -200z m218 88 c-29 -27
-128 -97 -138 -97 -5 0 -10 -4 -10 -8 0 -5 -21 -24 -47 -42 -71 -50 -153 -121
-164 -141 -7 -15 -2 -27 26 -57 19 -22 54 -52 77 -68 23 -16 49 -34 58 -41 78
-62 176 -133 183 -133 4 0 5 -4 2 -10 -3 -5 -1 -10 4 -10 6 0 11 -4 11 -10 0
-11 -85 45 -116 77 -11 13 -24 20 -27 16 -4 -3 -9 2 -13 11 -3 9 -10 16 -15
16 -10 0 -25 11 -57 41 -9 9 -30 24 -47 35 -16 10 -59 40 -94 68 l-64 50 44
38 c24 21 49 38 56 38 6 0 16 6 20 13 12 19 93 80 93 70 0 -4 4 -3 8 2 4 6 28
27 54 48 26 21 54 45 63 53 8 9 15 13 15 9 0 -4 17 7 37 24 20 16 40 28 45 25
4 -3 2 -11 -4 -17z"/>
<path d="M1430 1512 l0 -60 193 -143 c105 -78 195 -146 200 -149 4 -3 -83 -73
-193 -154 l-200 -148 0 -59 c0 -32 2 -59 5 -59 6 0 521 384 543 405 11 10 -38
51 -260 216 -150 112 -276 206 -280 207 -5 2 -8 -23 -8 -56z m117 -74 c30 -24
63 -47 71 -53 25 -15 115 -83 132 -99 8 -7 30 -21 48 -30 17 -9 32 -21 32 -26
0 -6 5 -10 11 -10 6 0 17 -7 25 -15 8 -8 25 -22 37 -30 l22 -16 -30 -27 c-17
-15 -44 -36 -59 -47 -16 -11 -37 -28 -48 -37 -10 -10 -21 -18 -24 -18 -3 0
-20 -11 -38 -25 -39 -32 -52 -42 -154 -117 -45 -33 -86 -57 -90 -53 -4 3 2 13
13 21 11 8 35 27 54 42 39 31 61 45 61 38 0 -2 13 8 28 22 40 39 72 63 72 55
0 -3 9 4 20 17 11 13 20 20 20 17 0 -3 23 15 50 40 28 25 50 52 50 60 0 25
-30 73 -46 73 -8 0 -12 5 -9 10 3 6 1 10 -4 10 -12 0 -177 115 -186 130 -3 5
-30 26 -60 45 -29 20 -56 42 -59 50 -8 23 0 19 61 -27z"/>
<path d="M1256 1533 c-3 -10 -57 -185 -121 -389 -63 -204 -115 -374 -115 -378
0 -3 20 -6 44 -6 44 0 44 0 60 48 8 26 60 191 115 367 54 176 104 332 110 348
l11 27 -50 0 c-38 0 -50 -4 -54 -17z"/>
</g>
</svg>
